<svg xmlns="http://www.w3.org/2000/svg" width="22" height="22" viewBox="0 0 24 24">
                  <g id="Images" transform="translate(7388 4068)">
                    <rect id="Rectangle-13" width="22" height="22" transform="translate(-7388 -4068)" fill="#fff" opacity="0"></rect>
                    <path id="Subtraction_3" data-name="Subtraction 3" d="M22,20H2a2,2,0,0,1-2-2V4.5a2,2,0,0,1,2-2H7.2L8.128.567A1,1,0,0,1,9.029,0h5.942a1.006,1.006,0,0,1,.9.567L16.8,2.5H22a2,2,0,0,1,2,2V18A2,2,0,0,1,22,20ZM15,5a6,6,0,1,0,6,6A6.007,6.007,0,0,0,15,5ZM6,5A1,1,0,1,0,7,6,1,1,0,0,0,6,5ZM3,5A1,1,0,1,0,4,6,1,1,0,0,0,3,5ZM15,16a5,5,0,1,1,5-5A5.006,5.006,0,0,1,15,16Zm0-8a3,3,0,1,0,3,3A3,3,0,0,0,15,8Z" transform="translate(-7388 -4066)" className="shape-icon"  fill="#fff"></path>
                  </g>
                </svg>