<svg xmlns="http://www.w3.org/2000/svg" width="22" height="22" viewBox="0 0 24 24">
                  <g id="Shapes" transform="translate(7353 4112)">
                    <rect id="Rectangle-13" width="22" height="22" transform="translate(-7353 -4112)" fill="#fff" opacity="0"></rect>
                    <path id="Subtraction_9" data-name="Subtraction 9" d="M11,18H1a1,1,0,0,1-1-1V7A1,1,0,0,1,1,6H7.7L5.137,11.118A1.3,1.3,0,0,0,6.3,13H12v4A1,1,0,0,1,11,18Z" transform="translate(-7353 -4106)" className="shape-icon" fill="#fff"></path>
                    <path id="Subtraction_8" data-name="Subtraction 8" d="M12,14l-.2,0L8.163,6.719a1.305,1.305,0,0,0-.581-.581,1.3,1.3,0,0,0-1.745.581L5.1,8.19A7,7,0,1,1,12,14Z" transform="translate(-7348 -4112)" className="shape-icon" fill="#fff"></path>
                    <path id="Path_692" data-name="Path 692" d="M12.449,7.75l4.071,8.142a.929.929,0,0,1-.831,1.344H7.547a.929.929,0,0,1-.831-1.344L10.787,7.75a.929.929,0,0,1,1.662,0Z" transform="translate(-7352.618 -4111.236)" className="shape-icon" fill="#fff"></path>
                  </g>
                </svg>