<svg xmlns="http://www.w3.org/2000/svg" width="33.978" height="23.218" viewBox="0 0 33.978 23.218">
    <defs>
        <style>
            .cls-1{fill:#01a6ff}
        </style>
    </defs>
    <g id="Ink-Logo" transform="translate(-30 -16)">
        <g id="Ink-Favicon" transform="translate(30 16)">
            <g id="Group" transform="translate(0 16.836)">
                <g id="Combined-Shape">
                    <path id="path-1" d="M14.829.745v5.629H10.68V1.041Q12.769.88 14.829.745zM4.18 1.6v4.774H.015l.009-4.36q2.091-.22 4.156-.414zM28.376.137l5.6 6.237h-5.207L23.342.3q2.54-.1 5.034-.163zm-6.707.23v6.007h-4.2V.582q2.118-.121 4.2-.215z" class="cls-1"/>
                </g>
            </g>
            <g id="Group-2" data-name="Group">
                <path id="Path-Copy-18" d="M2.126 0a2.064 2.064 0 0 1 1.508.626 2.058 2.058 0 0 1 .629 1.516 2.035 2.035 0 0 1-.623 1.5 2.039 2.039 0 0 1-1.49.62 2.068 2.068 0 0 1-1.521-.635A2.092 2.092 0 0 1 0 2.093 2 2 0 0 1 .623.614 2.064 2.064 0 0 1 2.126 0z" class="cls-1"/>
                <g id="Combined-Shape-2" data-name="Combined-Shape">
                    <path id="path-3" fill="#e72d5d" d="M14.876 17.757q-2.067.131-4.162.287v-2.17a18.538 18.538 0 0 0-.27-3.988 2.731 2.731 0 0 0-.94-1.5 2.637 2.637 0 0 0-1.657-.516 3.11 3.11 0 0 0-2.2.855 4.557 4.557 0 0 0-1.272 2.363 19.016 19.016 0 0 0-.185 3.4v2.1q-2.071.189-4.169.4l-.009 4.23H0V6.467h4.193v1.709a10.121 10.121 0 0 1 2.6-1.671 6.312 6.312 0 0 1 2.382-.47 5.774 5.774 0 0 1 4.239 1.74 5.964 5.964 0 0 1 1.464 4.373zm13.59-.59q-2.5.057-5.05.155L21.738 15.5v1.89q-2.089.091-4.209.209V0h4.209v13.38l6.2-6.913h5.272L25.993 14.5z"/>
                </g>
            </g>
        </g>
    </g>
</svg>
